#!OML:ASF X:\für Bonn\!DataBase\2005_08_11_Bastian_Final\c3d\Bastian.ASF
:FULLY-SPECIFIED
:DEGREES
157
root -2.16985 17.4698 5.91563 161.839 -11.6394 -171.356
lowerback 14.1901 -5.53508 1.16784
upperback 8.89269 -8.59528 1.40808
thorax 1.58705 -4.89774 1.86456
lowerneck -8.66049 -6.4438 -2.79166
upperneck -4.22126 -7.78487 10.6077
head 0.747923 -3.50329 3.6519
rclavicle -1.73937e-015 2.74323e-014
rhumerus -44.2483 30.5913 -98.1097
rradius 40.6982
rwrist -33.776
rhand -34.6405 5.20996
rfingers 7.12502
rthumb -7.79779 -24.6262
lclavicle -1.73937e-015 2.74323e-014
lhumerus 11.9622 -38.2966 70.5378
lradius 59.3375
lwrist -28.0813
lhand -48.8207 -8.22086
lfingers 7.12502
lthumb -21.4569 20.6108
rfemur -18.9299 -0.295495 24.9305
rtibia 79.5059
rfoot -4.88242 -13.9997
rtoes -10.3331
lfemur 9.60043 3.19405 -11.8093
ltibia 23.9432
lfoot -9.85768 -4.13359
ltoes -0.46986
158
root -2.15967 17.4651 5.87808 162.494 -10.9795 -171.486
lowerback 13.1821 -5.37498 1.3767
upperback 8.6402 -8.28257 1.35989
thorax 1.80278 -4.68594 1.5626
lowerneck -8.59966 -6.40353 -2.7389
upperneck -4.03415 -7.7675 10.4559
head 0.786215 -3.5018 3.58948
rclavicle 4.19933e-014 -3.57812e-015
rhumerus -44.0475 30.0353 -98.1003
rradius 40.529
rwrist -33.8977
rhand -34.6743 5.03794
rfingers 7.12502
rthumb -7.83041 -24.7971
lclavicle 4.19933e-014 -3.57812e-015
lhumerus 9.79715 -38.9423 71.6701
lradius 58.0724
lwrist -27.8022
lhand -48.2608 -7.80133
lfingers 7.12502
lthumb -20.919 21.0907
rfemur -17.6358 0.431156 25.0452
rtibia 77.0537
rfoot -5.11386 -14.3827
rtoes -10.5574
lfemur 8.98148 3.39521 -11.83
ltibia 24.3473
lfoot -10.2823 -3.7521
ltoes -0.386956
159
root -2.14856 17.4579 5.84135 163.16 -10.3393 -171.644
lowerback 12.1766 -5.22197 1.55966
upperback 8.39832 -7.99073 1.29941
thorax 2.03868 -4.48749 1.27044
lowerneck -8.60821 -6.35814 -2.66983
upperneck -3.83404 -7.74286 10.2975
head 0.839178 -3.49369 3.52032
rclavicle -6.23687e-014 4.37326e-014
rhumerus -43.7785 29.5051 -98.0841
rradius 40.3595
rwrist -33.9884
rhand -34.6856 4.76513
rfingers 7.12502
rthumb -7.84135 -25.0695
lclavicle -6.23687e-014 4.37326e-014
lhumerus 7.59534 -39.5759 72.8644
lradius 56.8482
lwrist -27.1176
lhand -47.6761 -7.26482
lfingers 7.12502
lthumb -20.3572 21.6882
rfemur -16.3917 1.11276 25.1011
rtibia 74.5821
rfoot -5.41484 -14.7735
rtoes -10.548
lfemur 8.34385 3.57373 -11.8998
ltibia 24.7696
lfoot -10.7098 -3.34145
ltoes -0.229015
160
root -2.13695 17.4501 5.80613 163.781 -9.69242 -171.784
lowerback 11.2501 -5.0641 1.78566
upperback 8.15001 -7.69307 1.22007
thorax 2.22518 -4.28603 0.951536
lowerneck -8.56371 -6.31191 -2.57805
upperneck -3.66022 -7.71603 10.141
head 0.873228 -3.48666 3.44969
rclavicle -2.28602e-015 0
rhumerus -43.5317 28.9245 -98.1086
rradius 40.1733
rwrist -34.1131
rhand -34.7048 4.52013
rfingers 7.12502
rthumb -7.85983 -25.3138
lclavicle -2.28602e-015 0
lhumerus 5.2879 -40.278 74.1346
lradius 55.7018
lwrist -26.0238
lhand -47.0771 -6.63777
lfingers 7.12502
lthumb -19.7814 22.3756
rfemur -15.1625 1.75449 25.16
rtibia 72.1163
rfoot -5.92806 -15.1709
rtoes -10.2497
lfemur 7.72915 3.73707 -11.9589
ltibia 25.223
lfoot -11.1445 -2.92406
ltoes -0.072827
161
root -2.1246 17.4416 5.77305 164.411 -9.07719 -171.96
lowerback 10.3598 -4.91022 1.93824
upperback 7.90187 -7.41502 1.16558
thorax 2.41201 -4.10084 0.709093
lowerneck -8.56693 -6.26812 -2.61647
upperneck -3.48273 -7.68049 10.0617
head 0.926746 -3.47089 3.42914
rclavicle 3.22031e-014 -1.51076e-014
rhumerus -43.2632 28.4146 -98.0721
rradius 40.027
rwrist -34.299
rhand -34.7091 4.25386
rfingers 7.12502
rthumb -7.86405 -25.5799
lclavicle 3.22031e-014 -1.51076e-014
lhumerus 2.96571 -40.9168 75.5385
lradius 54.499
lwrist -24.6024
lhand -46.48 -6.02573
lfingers 7.12502
lthumb -19.2073 23.0458
rfemur -14.0171 2.31693 25.1391
rtibia 69.7009
rfoot -6.58775 -15.5602
rtoes -9.69124
lfemur 7.09775 3.93629 -12.0515
ltibia 25.6838
lfoot -11.5891 -2.57865
ltoes 0.0386126
162
root -2.11122 17.4336 5.74302 165.01 -8.45734 -172.08
lowerback 9.53132 -4.76135 2.14994
upperback 7.65499 -7.14531 1.10761
thorax 2.56567 -3.92029 0.443607
lowerneck -8.56903 -6.22192 -2.60115
upperneck -3.3019 -7.64622 9.94747
head 0.976792 -3.45691 3.38667
rclavicle -4.48756e-014 1.66979e-014
rhumerus -42.9685 27.8975 -98.0898
rradius 39.8624
rwrist -34.4838
rhand -34.8041 3.97912
rfingers 7.12502
rthumb -7.95569 -25.8512
lclavicle -4.48756e-014 1.66979e-014
lhumerus 0.604646 -41.56 76.9813
lradius 53.2843
lwrist -22.8501
lhand -45.878 -5.37646
lfingers 7.12502
lthumb -18.6283 23.7516
rfemur -12.9272 2.85212 25.1621
rtibia 67.3512
rfoot -7.41342 -15.9861
rtoes -8.88265
lfemur 6.4729 4.25924 -12.0399
ltibia 26.1308
lfoot -11.9576 -2.3765
ltoes 0.247928
163
root -2.09536 17.4266 5.71649 165.568 -7.8783 -172.19
lowerback 8.81043 -4.63379 2.31087
upperback 7.40754 -6.91451 1.07789
thorax 2.67472 -3.76629 0.252687
lowerneck -8.59236 -6.16441 -2.66201
upperneck -3.11949 -7.59057 9.85818
head 1.03474 -3.43095 3.36753
rclavicle 1.01057e-013 -5.64548e-014
rhumerus -42.6466 27.3913 -98.0525
rradius 39.7282
rwrist -34.6511
rhand -34.8632 3.64576
rfingers 7.12502
rthumb -8.0127 -26.1824
lclavicle 1.01057e-013 -5.64548e-014
lhumerus -1.80806 -42.1146 78.5283
lradius 52.0089
lwrist -20.8361
lhand -45.3169 -4.72474
lfingers 7.12502
lthumb -18.0886 24.4541
rfemur -11.8853 3.28956 25.1732
rtibia 65.0936
rfoot -8.32906 -16.3175
rtoes -7.82597
lfemur 5.90069 4.58504 -12.0161
ltibia 26.5141
lfoot -12.2773 -2.19283
ltoes 0.379393
164
root -2.0789 17.4203 5.69193 166.083 -7.32504 -172.296
lowerback 8.16875 -4.51638 2.46853
upperback 7.15977 -6.70045 1.03532
thorax 2.74265 -3.62324 0.0626911
lowerneck -8.56845 -6.09598 -2.67879
upperneck -2.97299 -7.51954 9.76528
head 1.06945 -3.39942 3.34143
rclavicle 2.98177e-016 -2.78299e-015
rhumerus -42.3863 26.8876 -98.0782
rradius 39.6424
rwrist -34.8123
rhand -34.9956 3.40495
rfingers 7.12502
rthumb -8.14053 -26.4182
lclavicle 2.98177e-016 -2.78299e-015
lhumerus -4.28509 -42.5274 80.1612
lradius 50.7099
lwrist -18.6709
lhand -44.7469 -4.08661
lfingers 7.12502
lthumb -17.5401 25.1421
rfemur -10.8755 3.67827 25.1633
rtibia 62.9137
rfoot -9.33275 -16.5068
rtoes -6.41764
lfemur 5.40435 4.84289 -12.0161
ltibia 26.8298
lfoot -12.5945 -1.9634
ltoes 0.416067
165
root -2.06156 17.4189 5.66619 166.594 -6.83178 -172.407
lowerback 7.52298 -4.41722 2.59671
upperback 6.93049 -6.51955 0.99148
thorax 2.83811 -3.49994 -0.109672
lowerneck -8.58613 -6.02404 -2.65702
upperneck -2.8328 -7.4445 9.64238
head 1.10577 -3.36515 3.29722
rclavicle 3.13086e-014 -1.63003e-014
rhumerus -42.0541 26.3498 -98.0826
rradius 39.5162
rwrist -34.9712
rhand -35.1406 3.22794
rfingers 7.12502
rthumb -8.28045 -26.5898
lclavicle 3.13086e-014 -1.63003e-014
lhumerus -6.73447 -42.7546 81.806
lradius 49.357
lwrist -16.5755
lhand -44.2386 -3.39256
lfingers 7.12502
lthumb -17.0509 25.8792
rfemur -9.97647 3.90152 25.152
rtibia 60.8047
rfoot -10.0322 -16.596
rtoes -6.1263
lfemur 4.93853 4.88061 -12.0904
ltibia 27.0736
lfoot -12.9062 -1.57625
ltoes 0.543555
166
root -2.04263 17.4191 5.64059 167.049 -6.34051 -172.481
lowerback 6.94014 -4.32384 2.72564
upperback 6.71491 -6.354 0.974732
thorax 2.91907 -3.38873 -0.246739
lowerneck -8.60688 -5.94355 -2.67448
upperneck -2.67771 -7.35701 9.52474
head 1.14893 -3.32468 3.26261
rclavicle -6.28657e-015 1.19271e-015
rhumerus -41.749 25.8041 -98.0602
rradius 39.4062
rwrist -35.0635
rhand -35.2681 3.14
rfingers 7.12502
rthumb -8.40351 -26.6728
lclavicle -6.28657e-015 1.19271e-015
lhumerus -9.21982 -42.7014 83.5401
lradius 47.9592
lwrist -14.6171
lhand -43.8328 -2.7057
lfingers 7.12502
lthumb -16.6602 26.5993
rfemur -9.10322 4.07228 25.2058
rtibia 58.7682
rfoot -10.5507 -16.5777
rtoes -6.29083
lfemur 4.54213 4.88247 -12.127
ltibia 27.2914
lfoot -13.2143 -1.18085
ltoes 0.688114
